<svg width="1280" height="720" xmlns="http://www.w3.org/2000/svg" xmlns:xlink="http://www.w3.org/1999/xlink" overflow="hidden"><defs><clipPath id="clip0"><rect x="0" y="0" width="1280" height="720"/></clipPath></defs><g clip-path="url(#clip0)"><rect x="0" y="0" width="1280" height="720" fill="#FFFFFF"/><rect x="128" y="48" width="733" height="626" stroke="#000000" stroke-width="4" stroke-miterlimit="8" fill="none"/><path d="M128.5 131.5 861.776 131.5" stroke="#000000" stroke-width="3" stroke-miterlimit="8" fill="none" fill-rule="evenodd"/><text font-family="LXGW WenKai Mono Screen,LXGW WenKai Mono Screen_MSFontService,sans-serif" font-weight="400" font-size="37" transform="translate(266.479 100)">露天阳台（三个小寝相互联通）</text><rect x="128.5" y="131.5" width="245" height="280" stroke="#000000" stroke-width="3" stroke-miterlimit="8" fill="none"/><rect x="373.5" y="131.5" width="244" height="280" stroke="#000000" stroke-width="3" stroke-miterlimit="8" fill="none"/><rect x="617.5" y="131.5" width="244" height="379" stroke="#000000" stroke-width="3" stroke-miterlimit="8" fill="none"/><rect x="617.5" y="510.5" width="244" height="164" stroke="#000000" stroke-width="3" stroke-miterlimit="8" fill="none"/><text font-family="LXGW WenKai Mono Screen,LXGW WenKai Mono Screen_MSFontService,sans-serif" font-weight="400" font-size="37" transform="translate(708.523 602)">厕所<tspan font-size="37" x="-467.753" y="-323">A</tspan><tspan font-size="37" x="-233.087" y="-323">B</tspan><tspan font-size="37" x="30.4571" y="-323">C</tspan><tspan font-size="37" x="-373.815" y="-49">客厅</tspan><tspan font-size="27" x="-361.386" y="-145">桌子</tspan><tspan font-size="27" x="-570.848" y="-96">储</tspan><tspan font-size="27" x="-570.848" y="-64">物</tspan><tspan font-size="27" x="-570.848" y="-32">柜</tspan><tspan font-size="27" x="-467.753" y="54">窗户</tspan></text><rect x="181" y="112" width="140" height="39" fill="#FFFFFF"/><text font-family="LXGW WenKai Mono Screen,LXGW WenKai Mono Screen_MSFontService,sans-serif" font-weight="400" font-size="24" transform="translate(190.108 140)">玻璃推拉门</text><rect x="417" y="115" width="141" height="39" fill="#FFFFFF"/><text font-family="LXGW WenKai Mono Screen,LXGW WenKai Mono Screen_MSFontService,sans-serif" font-weight="400" font-size="24" transform="translate(426.661 143)">玻璃推拉门</text><rect x="676" y="112" width="141" height="39" fill="#FFFFFF"/><text font-family="LXGW WenKai Mono Screen,LXGW WenKai Mono Screen_MSFontService,sans-serif" font-weight="400" font-size="24" transform="translate(685.635 140)">玻璃推拉门</text><rect x="810" y="411" width="43" height="97" fill="#FFFFFF"/><text font-family="LXGW WenKai Mono Screen,LXGW WenKai Mono Screen_MSFontService,sans-serif" font-weight="400" font-size="24" transform="translate(819.293 439)">行<tspan font-size="24" x="0" y="29">李</tspan><tspan font-size="24" x="0" y="57">架</tspan></text><path d="M240.6 361.502C269.042 361.285 292.278 383.719 292.498 411.608 292.499 411.739 292.5 411.869 292.5 412" stroke="#000000" stroke-width="3" stroke-miterlimit="8" fill="none" fill-rule="evenodd"/><path d="M239.5 361.5 239.5 411.622" stroke="#000000" stroke-width="3" stroke-miterlimit="8" fill="none" fill-rule="evenodd"/><path d="M0 0 52.8947 0.000104987" stroke="#000000" stroke-width="3" stroke-miterlimit="8" fill="none" fill-rule="evenodd" transform="matrix(-1 0 0 1 670.395 496.5)"/><path d="M462.6 361.502C491.042 361.285 514.278 383.719 514.498 411.608 514.5 411.739 514.5 411.869 514.5 412" stroke="#000000" stroke-width="3" stroke-miterlimit="8" fill="none" fill-rule="evenodd"/><path d="M462.5 361.5 462.5 411.622" stroke="#000000" stroke-width="3" stroke-miterlimit="8" fill="none" fill-rule="evenodd"/><path d="M616.596 445.502C645.038 445.281 668.276 467.935 668.498 496.1 668.5 496.234 668.5 496.367 668.5 496.5" stroke="#000000" stroke-width="3" stroke-miterlimit="8" fill="none" fill-rule="evenodd"/><text font-family="LXGW WenKai Mono Screen,LXGW WenKai Mono Screen_MSFontService,sans-serif" font-weight="400" font-size="27" transform="translate(631.408 546)">洗<tspan font-size="27" x="43.2667" y="0">漱</tspan><tspan font-size="27" x="86.5334" y="0">池</tspan><tspan font-size="27" x="144.767" y="0">|</tspan><tspan font-size="27" x="159.733" y="0">淋</tspan><tspan font-size="27" x="203" y="0">浴</tspan><tspan font-size="27" x="-7.37927" y="112">蹲坑</tspan><tspan font-size="27" x="49.5941" y="112">|</tspan><tspan font-size="27" x="79.8874" y="112">蹲坑</tspan><tspan font-size="27" x="151.994" y="112">|</tspan><tspan font-size="27" x="167.141" y="112">淋浴</tspan></text><path d="M485.596 618.502C514.038 618.281 537.276 640.935 537.498 669.1 537.5 669.234 537.5 669.367 537.5 669.5" stroke="#000000" stroke-width="3" stroke-miterlimit="8" fill="none" fill-rule="evenodd"/><path d="M485.5 618.5 485.5 668.622" stroke="#000000" stroke-width="3" stroke-miterlimit="8" fill="none" fill-rule="evenodd"/><path d="M0 0 52.8947 0.000104987" stroke="#000000" stroke-width="3" stroke-miterlimit="8" fill="none" fill-rule="evenodd" transform="matrix(-1 0 0 1 669.395 615.5)"/><path d="M618.728 564.572C646.072 566.008 667.5 588.383 667.5 615.5" stroke="#000000" stroke-width="3" stroke-miterlimit="8" fill="none" fill-rule="evenodd"/><text font-family="FangSong,FangSong_MSFontService,sans-serif" font-weight="700" font-size="43" transform="translate(1029.14 141)">27舍<tspan font-size="43" x="-64.1667" y="51">标准大寝室</tspan><tspan font-family="Arial,Arial_MSFontService,sans-serif" font-weight="400" font-size="32" x="-139.913" y="91">•</tspan><tspan font-weight="400" font-size="32" x="-91.9134" y="91">四人间</tspan><tspan font-family="Arial,Arial_MSFontService,sans-serif" font-weight="400" font-size="32" x="-139.913" y="130">•</tspan><tspan font-weight="400" font-size="32" x="-91.9134" y="130">上床下桌</tspan><tspan font-family="Arial,Arial_MSFontService,sans-serif" font-weight="400" font-size="32" x="-139.913" y="168">•</tspan><tspan font-weight="400" font-size="32" x="-91.9134" y="168">大寝共用卫浴</tspan><tspan font-family="Arial,Arial_MSFontService,sans-serif" font-weight="400" font-size="32" x="-139.913" y="207">•</tspan><tspan font-weight="400" font-size="32" x="-91.9134" y="207">小寝基本无储物空间</tspan><tspan font-family="Arial,Arial_MSFontService,sans-serif" font-weight="400" font-size="32" x="-139.913" y="245">•</tspan><tspan font-weight="400" font-size="32" x="-91.9134" y="245">大寝储物空间充足</tspan><tspan font-weight="400" font-size="37" x="-139.913" y="334">注：个别边角宿舍的</tspan><tspan font-weight="400" font-size="37" x="-139.913" y="379">布置会有偏差。</tspan><tspan font-weight="400" font-size="37" x="-139.913" y="423">如客厅面积可能被压</tspan><tspan font-weight="400" font-size="37" x="-139.913" y="468">缩或出现歪斜</tspan></text><path d="M-1.88538 360.808 792.106-128.569 1132.88 424.329 338.893 913.705Z" fill="#FFFFFF" fill-rule="evenodd" fill-opacity="0"/><text fill="#2F5597" fill-opacity="0.34902" font-family="851tegakizatsu,851tegakizatsu_MSFontService,sans-serif" font-weight="400" font-size="88" transform="matrix(0.851291 -0.524693 0.524693 0.851291 333.006 267)">@Light<tspan font-size="88" x="-87.7069" y="104.524">NJUST.WIKI</tspan><tspan font-size="88" x="-0.0737762" y="317.12">@Light</tspan><tspan font-size="88" x="-87.7807" y="421.644">NJUST.WIKI</tspan></text></g></svg>